<?xml version="1.0" encoding="UTF-8"?>
<svg id="b" data-name="Layer 2" xmlns="http://www.w3.org/2000/svg" width="292.96" height="98.9" viewBox="0 0 292.96 98.9">
  <g id="c" data-name="Layer 1">
    <path d="M240.25.5c28.9-.08,51.7,19.96,52.21,48.25.5,27.56-21.75,49.69-50.11,49.65l-194.31-.31c-28.63-.05-50.08-25.1-47.29-53.53C3.07,20.86,22.6,1.13,46.95,1.06l193.29-.56ZM37.63,45.62c-2.14,0-3.87,1.73-3.87,3.87s1.73,3.87,3.87,3.87,3.87-1.73,3.87-3.87-1.73-3.87-3.87-3.87ZM83.85,77.75c-2.15,0-3.88,1.74-3.88,3.89s1.74,3.89,3.88,3.89,3.88-1.74,3.88-3.89-1.74-3.89-3.88-3.89ZM83.92,13.43c-2.16,0-3.92,1.75-3.92,3.92s1.75,3.92,3.92,3.92,3.92-1.75,3.92-3.92-1.75-3.92-3.92-3.92ZM164.59,44.63l-36.89.07c-3.25,0-5.54,1.68-5.36,4.79.11,1.96,1.58,4.78,4.45,4.78l38.27.09c3.44,0,5.38-1.95,5.45-4.86.07-3.06-2-4.88-5.92-4.87ZM208.94,77.78c-2.15,0-3.9,1.74-3.9,3.9s1.74,3.9,3.9,3.9,3.9-1.74,3.9-3.9-1.74-3.9-3.9-3.9ZM208.96,13.45c-2.15,0-3.9,1.74-3.9,3.9s1.74,3.9,3.9,3.9,3.9-1.74,3.9-3.9-1.74-3.9-3.9-3.9ZM259.24,48.46c-1.33-3.04-4.06-3.11-6.19-2.06-1.78.88-2.31,3.39-1.02,5.47,1,1.62,3.51,1.59,5.05.94,1.23-.51,3.02-2.41,2.16-4.35Z" style="fill: none; stroke: #231f20; stroke-miterlimit: 10;"/>
  </g>
</svg>