<?xml version="1.0" encoding="UTF-8"?>
<svg id="b" data-name="Layer 2" xmlns="http://www.w3.org/2000/svg" width="332.21" height="99.02" viewBox="0 0 332.21 99.02">
  <g id="c" data-name="Layer 1">
    <path d="M253.06,1.23c27.55.12,68.57,20,78.06,44.99.8,2.12.78,4.44-.02,6.57-10.34,27.46-53.22,45.41-82.08,45.46l-162.34.28c-30.2.05-75.36-17.13-85.66-46.06-.65-1.82-.68-3.83-.06-5.66C10.85,17.68,56.99.37,87.52.5l165.54.73ZM57.29,45.57c-2.17,0-3.93,1.76-3.93,3.94s1.76,3.94,3.93,3.94,3.93-1.76,3.93-3.94-1.76-3.94-3.93-3.94ZM103.65,77.67c-2.16,0-3.92,1.76-3.92,3.92s1.75,3.92,3.92,3.92,3.92-1.76,3.92-3.92-1.75-3.92-3.92-3.92ZM103.64,13.31c-2.19,0-3.97,1.78-3.97,3.97s1.78,3.97,3.97,3.97,3.97-1.78,3.97-3.97-1.78-3.97-3.97-3.97ZM185.21,44.61h-38.64c-3.2,0-4.69,3.22-4.52,5.56.19,2.7,2.36,4.05,5.39,4.06l38.23.02c2.95,0,4.83-2.42,4.76-4.78s-1.8-4.85-5.23-4.85ZM228.6,13.32c-2.17,0-3.93,1.76-3.93,3.93s1.76,3.93,3.93,3.93,3.93-1.76,3.93-3.93-1.76-3.93-3.93-3.93ZM228.69,77.67c-2.15,0-3.9,1.75-3.9,3.9s1.75,3.9,3.9,3.9,3.9-1.75,3.9-3.9-1.75-3.9-3.9-3.9ZM275.1,45.6c-2.17,0-3.94,1.76-3.94,3.94s1.76,3.94,3.94,3.94,3.94-1.76,3.94-3.94-1.76-3.94-3.94-3.94Z" style="fill: none; stroke: #231f20; stroke-miterlimit: 10;"/>
  </g>
</svg>