<?xml version="1.0" encoding="UTF-8"?>
<svg id="b" data-name="Layer 2" xmlns="http://www.w3.org/2000/svg" width="312.59" height="98.44" viewBox="0 0 312.59 98.44">
  <g id="c" data-name="Layer 1">
    <path d="M311.94,25.37l.15,47.39c.01,4.17-2.83,7.8-6.88,8.78l-59.29,14.35c-5.54,1.34-11.22,2.02-16.92,2.02l-144.69.04c-5.65,0-11.29-.66-16.79-1.98l-60.07-14.39c-4.05-.97-6.9-4.58-6.9-8.74l-.05-47.22c0-4.16,2.85-7.78,6.89-8.76L66.88,2.52c5.52-1.33,11.17-2,16.85-2l145.36-.02c5.65,0,11.28.66,16.77,1.98l59.17,14.16c4.04.97,6.89,4.57,6.9,8.72ZM47.6,45.22c-2.19,0-3.97,1.78-3.97,3.97s1.78,3.97,3.97,3.97,3.97-1.78,3.97-3.97-1.78-3.97-3.97-3.97ZM93.87,77.36c-2.2,0-3.98,1.78-3.98,3.98s1.78,3.98,3.98,3.98,3.98-1.78,3.98-3.98-1.78-3.98-3.98-3.98ZM93.88,13.19c-2.15,0-3.89,1.74-3.89,3.89s1.74,3.89,3.89,3.89,3.89-1.74,3.89-3.89-1.74-3.89-3.89-3.89ZM175.42,44.33l-37.76-.06c-3.25,0-5.5,1.54-5.55,4.63-.03,2.11,1.63,5.12,4.71,5.16,13.61.15,26.98.67,40.28-.14,2.68-.16,4.13-4.11,3.7-5.8-.47-1.86-2.29-3.78-5.38-3.79ZM218.9,77.39c-2.19,0-3.96,1.77-3.96,3.96s1.77,3.96,3.96,3.96,3.96-1.77,3.96-3.96-1.77-3.96-3.96-3.96ZM218.94,13.07c-2.19,0-3.97,1.78-3.97,3.97s1.78,3.97,3.97,3.97,3.97-1.78,3.97-3.97-1.78-3.97-3.97-3.97ZM261.72,50.56c.95,2.55,3.31,2.96,5.22,2.1,2.27-1.02,3.17-3.13,2.12-5.09-1.18-2.2-3.45-2.5-5.37-2-2.34.61-2.82,2.68-1.96,4.99Z" style="fill: none; stroke: #231f20; stroke-miterlimit: 10;"/>
  </g>
</svg>