<?xml version="1.0" encoding="UTF-8"?>
<svg id="b" data-name="Layer 2" xmlns="http://www.w3.org/2000/svg" width="293.06" height="98.48" viewBox="0 0 293.06 98.48">
  <g id="c" data-name="Layer 1">
    <path d="M292.56,10.75l-.13,77.18c0,5.76-4.39,10.01-10.3,10.01l-270.9.04c-5.5,0-10.6-3.2-10.61-8.92l-.12-80.75C1.92,3.07,5.74.52,11.25.52l270.02-.02c6.45,0,10.38,3.39,11.29,10.25ZM37.43,45.31c-2.15,0-3.9,1.75-3.9,3.9s1.75,3.9,3.9,3.9,3.9-1.75,3.9-3.9-1.75-3.9-3.9-3.9ZM80.26,83.04c1.03,2.44,3.87,2.37,5.36,1.64,1.89-.93,2.65-3.15,2.15-4.51-.88-2.38-3.31-2.94-5.03-2.43-2.1.62-3.62,2.61-2.48,5.3ZM83.86,13.18c-2.18,0-3.95,1.77-3.95,3.96s1.77,3.96,3.95,3.96,3.95-1.77,3.95-3.96-1.77-3.96-3.95-3.96ZM165.12,44.33l-38.1.03c-3.26,0-4.99,2.41-4.83,5.16.15,2.55,2.18,4.59,5.38,4.58l38.21-.07c3,0,4.88-2.97,4.74-5.28s-2.28-4.42-5.4-4.42ZM208.83,77.37c-2.18,0-3.95,1.77-3.95,3.95s1.77,3.95,3.95,3.95,3.95-1.77,3.95-3.95-1.77-3.95-3.95-3.95ZM208.78,13.17c-2.16,0-3.92,1.76-3.92,3.92s1.75,3.92,3.92,3.92,3.92-1.76,3.92-3.92-1.75-3.92-3.92-3.92ZM255.23,45.31c-2.17,0-3.93,1.76-3.93,3.93s1.76,3.93,3.93,3.93,3.93-1.76,3.93-3.93-1.76-3.93-3.93-3.93Z" style="fill: none; stroke: #231f20; stroke-miterlimit: 10;"/>
  </g>
</svg>